<?xml version="1.0" encoding="UTF-8" standalone="no"?>
<svg width="261px" height="183px" viewBox="0 0 261 183" version="1.1" xmlns="http://www.w3.org/2000/svg" xmlns:xlink="http://www.w3.org/1999/xlink" xmlns:sketch="http://www.bohemiancoding.com/sketch/ns">
    <!-- Generator: Sketch 3.3.3 (12072) - http://www.bohemiancoding.com/sketch -->
    <title>404-graphic</title>
    <desc>Created with Sketch.</desc>
    <defs></defs>
    <g id="Page-1" stroke="none" stroke-width="1" fill="none" fill-rule="evenodd" sketch:type="MSPage">
        <g id="404---Inside-App" sketch:type="MSArtboardGroup" transform="translate(-472.000000, -200.000000)">
            <g id="404-graphic" sketch:type="MSLayerGroup" transform="translate(474.000000, 200.000000)">
                <g id="circle" transform="translate(37.000000, 0.000000)" sketch:type="MSShapeGroup">
                    <path d="M91.5,175 C137.615777,175 175,137.615777 175,91.5 C175,45.3842234 137.615777,8 91.5,8 C45.3842234,8 8,45.3842234 8,91.5 C8,137.615777 45.3842234,175 91.5,175 L91.5,175 Z M91.5,183 L91.5,183 C40.9659454,183 0,142.034055 0,91.5 C0,40.9659454 40.9659454,0 91.5,0 C142.034055,0 183,40.9659454 183,91.5 C183,142.034055 142.034055,183 91.5,183 L91.5,183 Z" id="Shape" fill="#00A7E1"></path>
                    <path d="M91.5,175 C137.615777,175 175,137.615777 175,91.5 C175,45.3842234 137.615777,8 91.5,8 C45.3842234,8 8,45.3842234 8,91.5 C8,137.615777 45.3842234,175 91.5,175 L91.5,175 Z M91.5,181 L91.5,181 C42.0705149,181 2,140.929485 2,91.5 C2,42.0705149 42.0705149,2 91.5,2 C140.929485,2 181,42.0705149 181,91.5 C181,140.929485 140.929485,181 91.5,181 L91.5,181 Z" id="Shape" fill="#FFFFFF"></path>
                    <path d="M91.5,175 C137.615777,175 175,137.615777 175,91.5 C175,45.3842234 137.615777,8 91.5,8 C45.3842234,8 8,45.3842234 8,91.5 C8,137.615777 45.3842234,175 91.5,175 L91.5,175 Z M91.5,180 L91.5,180 C42.6227996,180 3,140.3772 3,91.5 C3,42.6227996 42.6227996,3 91.5,3 C140.3772,3 180,42.6227996 180,91.5 C180,140.3772 140.3772,180 91.5,180 L91.5,180 Z" id="Shape" opacity="0.44" fill-opacity="0.442934783" fill="#00A7E1"></path>
                </g>
                <path d="M65.1015625,111.144531 L50.3359375,111.144531 L50.3359375,133 L44.828125,133 L44.828125,111.144531 L0.765625,111.144531 L0.765625,107.21875 L43.2460938,46.8671875 L50.3359375,46.8671875 L50.3359375,106.105469 L65.1015625,106.105469 L65.1015625,111.144531 Z M44.828125,106.105469 L44.828125,81.6132812 C44.828125,69.8163473 45.1015598,59.9141025 45.6484375,51.90625 L45.1796875,51.90625 C44.3984336,53.3515697 41.9961139,57.023408 37.9726562,62.921875 L7.73828125,106.105469 L44.828125,106.105469 Z" id="4-:(-4" stroke="#293A46" stroke-width="2" fill="#293A46" sketch:type="MSShapeGroup"></path>
                <path d="M256.113281,111.144531 L241.347656,111.144531 L241.347656,133 L235.839844,133 L235.839844,111.144531 L191.777344,111.144531 L191.777344,107.21875 L234.257812,46.8671875 L241.347656,46.8671875 L241.347656,106.105469 L256.113281,106.105469 L256.113281,111.144531 Z M235.839844,106.105469 L235.839844,81.6132812 C235.839844,69.8163473 236.113279,59.9141025 236.660156,51.90625 L236.191406,51.90625 C235.410152,53.3515697 233.007833,57.023408 228.984375,62.921875 L198.75,106.105469 L235.839844,106.105469 Z" id="Path" stroke="#293A46" stroke-width="2" fill="#293A46" sketch:type="MSShapeGroup" transform="translate(223.945312, 89.933594) scale(-1, 1) translate(-223.945312, -89.933594) "></path>
                <g id="Frown" transform="translate(103.000000, 41.000000)" stroke="#00A7E1" fill="#00A7E1" sketch:type="MSShapeGroup">
                    <path d="M0.381377551,76.7765625 C0.381377551,73.1671695 1.84819962,71.3625 4.78188776,71.3625 C7.7889181,71.3625 9.29241071,73.1671695 9.29241071,76.7765625 C9.29241071,80.3859555 7.7889181,82.190625 4.78188776,82.190625 C1.84819962,82.190625 0.381377551,80.3859555 0.381377551,76.7765625 L0.381377551,76.7765625 Z" id="Path"></path>
                    <path d="M0.381377551,27.4422991 C0.381377551,23.8329061 1.84819962,22.0282366 4.78188776,22.0282366 C7.7889181,22.0282366 9.29241071,23.8329061 9.29241071,27.4422991 C9.29241071,29.3943178 8.86153173,30.7938574 7.99976084,31.6409598 C7.13798995,32.4880623 6.06537632,32.9116071 4.78188776,32.9116071 C3.5350703,32.9116071 2.48995957,32.4880623 1.64652423,31.6409598 C0.803088895,30.7938574 0.381377551,29.3943178 0.381377551,27.4422991 L0.381377551,27.4422991 Z" id="Path"></path>
                    <path d="M22.7689732,50.0929687 C22.7689732,40.3328753 24.1899571,31.1990381 27.0319675,22.691183 C29.8739779,14.183328 33.971912,6.72525526 39.3258929,0.316741071 L45.5416135,0.316741071 C40.1142905,7.01989959 35.9521829,14.6160848 33.0551658,23.1055246 C30.1581488,31.5949643 28.709662,40.5538591 28.709662,49.9824777 C28.709662,67.7716291 34.2835858,84.1057292 45.4316008,98.9852679 L39.3258929,98.9852679 C33.9352409,92.7240758 29.8281391,85.4133231 27.0044643,77.0527902 C24.1807895,68.6922573 22.7689732,59.70574 22.7689732,50.0929687 L22.7689732,50.0929687 Z" id="Path"></path>
                </g>
            </g>
        </g>
    </g>
</svg>