<svg width="120" height="25" viewBox="0 0 120 25" xmlns="http://www.w3.org/2000/svg"><title>logo-timeinc</title><path d="M57.942 14.762c.017-3.243 1.565-5.38 3.737-5.385 2.15-.007 3.77 1.7 3.75 5.364l-7.03.025-.458-.003zm11.56.91c-.335-4.195-3.784-7.446-7.994-7.433-4.425.014-8 3.672-7.985 8.168.015 4.497 3.656 8.03 8.077 8.13 3.463.08 6.033-1.042 7.603-4.74.195-.613-.413-.98-.817-.207-2.522 4.838-7.26 3.107-8.585 1.726-1.17-1.224-1.826-3.005-1.91-5.41h.22l11.073-.035c.343 0 .32-.198.32-.198zm46.895 6.79c.002.87.71 1.573 1.584 1.57a1.58 1.58 0 0 0 1.574-1.58 1.577 1.577 0 0 0-1.583-1.57 1.575 1.575 0 0 0-1.573 1.58zm-3.547-11.917c.212.393.07.8-.05 1.074a1.78 1.78 0 0 0-.144.772c.002.977.715 1.725 1.635 1.72.924 0 1.62-.754 1.62-1.73-.002-.322-.024-.528-.155-.8l-.104-.19c-1.354-2.093-3.523-3.39-6.25-3.396-4.032-.005-7.8 3.616-7.788 8.116.015 4.498 3.01 8.05 7.433 8.158 3.24.08 6.072-1.328 7.464-4.754.233-.693-.326-.95-.708-.165-2.214 4.54-6.7 2.78-8.025 1.397-1.14-1.19-1.948-2.706-2.07-5.005-.028-.87.036-1.277.05-1.575.22-2.856 1.896-5.027 4.01-5.034 1.306-.004 2.353.146 3.066 1.368l.017.045zm-21.718-.19c.8-.487 1.858-.634 2.746-.093.89.54 1.216 1.395 1.22 2.596l.023 6.787c.063 3.977-.766 3.488-1.82 3.862-.393.138-.46.544.175.542l1.516-.006 4.187-.014 1.516-.005c.586 0 .638-.403.19-.543-1.026-.324-1.815.028-1.805-3.85 0 0-.003-.944-.015-7.244-.006-4.3-7.64-6.323-10.258-1.342 0 0-.005-1.844-.01-2.444 0-.543-.2-.618-.557-.18-1.97 2.41-4.63 2.034-5.29 2.074-.5.03-.483.53.032.572 1.712.137 1.932 1.45 1.933 2.024l.02 6.585c.066 3.978-.765 3.488-1.816 3.863-.394.138-.464.544.173.542l1.514-.006 4.187-.013 1.516-.005c.59-.002.64-.403.194-.543-1.028-.324-1.873.028-1.866-3.85l-.02-5.987c-.004-1.457 1.52-2.833 2.318-3.322zm-15.84-5.303l.048 14.628c.068 4-1.194 3.57-2.162 3.893-.31.105-.4.536.23.543.802.008 3.89-.013 3.89-.013s3.55-.01 4.35-.014c.487-.002.636-.414.227-.56-.963-.34-2.188.207-2.187-3.864L79.642 5.04l.01-.106c0-4.043 1.062-3.532 2.033-3.848.495-.162.5-.585-.1-.586-.802 0-4.35.014-4.35.014s-3.09.007-3.89.012c-.658.005-.493.472-.13.572 1.043.287 2.104-.02 2.088 3.85l-.01.104zM14.58 18.277L14.527 1.82c3.69-.357 8.1 1.38 8.802 5.884.073.475.544.328.542-.087 0-.314-.022-6.887-.022-6.887L12.12.768.39.808s.022 6.57.022 6.884c.002.416.473.56.544.085.672-4.51 5.072-6.275 8.765-5.943L9.78 19.89c.084 3.915-1.197 3.554-2.162 3.893-.295.106-.355.546.23.544l4.35-.014.043-.014 4.29-.015c.586-.002.523-.444.227-.545-.967-.334-2.245.035-2.187-3.878l.01-1.585zm8.825-9.516c-2.035 1.982-4 1.928-5.344 1.947-.457.007-.384.444-.142.444 1.187-.003 2.064.966 2.07 2.55l.02 6.186c.062 3.98-.767 3.488-1.82 3.864-.393.14-.464.545.173.543.803-.002 1.518-.006 1.518-.006l4.185-.013s.63 0 1.43-.004c.587-.002.637-.404.19-.544-1.025-.325-1.786.027-1.777-3.852l-.035-10.92c0-.288-.13-.516-.465-.193zm18.368 2.43c2.616-4.98 9.594-2.942 9.6 1.36l.014 7.214c-.01 3.88.782 3.527 1.807 3.85.446.142.396.544-.19.546l-1.517.005-4.185.014s-.715 0-1.517.004c-.636 0-.566-.404-.173-.545 1.05-.374 1.88.114 1.817-3.863l-.022-6.758c-.003-1.2-.33-2.057-1.22-2.597-.887-.54-1.954-.406-2.745.095-.874.552-1.602 1.816-1.6 3.07v.086l.01 6.125c-.01 3.88.78 3.527 1.807 3.85.446.142.395.542-.19.544l-1.516.006-4.187.013-1.517.004c-.636.002-.565-.4-.173-.54 1.053-.377 1.882.115 1.818-3.865l-.02-6.785c-.005-1.2-.332-2.056-1.22-2.596-.89-.54-1.948-.393-2.747.094-.798.488-1.634 1.864-1.63 3.32l.02 5.987c-.01 3.88.836 3.528 1.863 3.85.446.144.397.543-.19.544l-1.516.006-4.185.013-1.46.005c-.638.002-.567-.402-.173-.543 1.05-.374 1.824.117 1.76-3.863 0 0-.02-6.012-.02-6.586-.003-.57-.217-1.987-1.933-2.02-.616-.014-.574-.557-.03-.572.657-.02 2.598.167 5.17-2.075.43-.372.675-.364.676.18l.008 2.443c2.37-4.51 8.24-3.247 9.374.22l.13-.242z" fill="#9DA9B0" fill-rule="evenodd"/></svg>