<svg width="62" height="16" viewBox="0 0 62 16" xmlns="http://www.w3.org/2000/svg"><title>acme-header</title><path d="M14.186 14.11c.214.21.425.323.632.337v.412c-.99-.042-2.24-.062-3.747-.062-1.566 0-2.718.02-3.455.06v-.41c.516-.02.886-.085 1.11-.192.225-.107.337-.295.337-.563 0-.207-.084-.532-.25-.974L7.584 9.342h-4.15l-.35.924c-.443 1.152-.664 2.047-.664 2.683 0 .562.157.948.468 1.155.312.208.776.322 1.392.342v.412a69.77 69.77 0 0 0-2.693-.062c-.65 0-1.178.02-1.587.06v-.41c.335-.055.655-.266.96-.634.304-.37.614-.96.93-1.778L6.46.29c.295.028.656.042 1.085.042.43 0 .787-.014 1.075-.04l4.983 12.84c.174.44.368.767.583.978zM5.576 3.787L3.596 8.93h3.848L5.576 3.788zM27.522 13.93c-.077-.192-.19-.287-.336-.287-.108 0-.248.057-.422.17-.41.29-.786.525-1.13.71a5.485 5.485 0 0 1-1.18.45 5.85 5.85 0 0 1-1.498.177c-1.554 0-2.913-.295-4.08-.884a6.373 6.373 0 0 1-2.71-2.567c-.644-1.123-.966-2.457-.966-4.004 0-1.514.33-2.854.99-4.02A6.92 6.92 0 0 1 18.943.965C20.118.32 21.463 0 22.976 0c.817 0 1.515.117 2.095.352a7.24 7.24 0 0 1 1.694.984c.154.12.288.18.402.18.28 0 .455-.408.522-1.225h.472c-.053.973-.08 2.687-.08 5.145h-.472c-.067-.73-.163-1.34-.287-1.833a4.374 4.374 0 0 0-.566-1.326 3.496 3.496 0 0 0-1.045-1.02c-.63-.41-1.267-.613-1.91-.613-.985 0-1.763.347-2.336 1.04-.572.693-.97 1.56-1.195 2.597a15.77 15.77 0 0 0-.338 3.335c0 1.186.112 2.297.337 3.336.223 1.04.622 1.904 1.194 2.598.573.693 1.35 1.04 2.336 1.04.643 0 1.28-.205 1.91-.613.44-.275.79-.613 1.044-1.015a4.5 4.5 0 0 0 .567-1.412c.125-.54.22-1.217.288-2.034h.472c0 2.552.027 4.333.08 5.345h-.472c-.034-.43-.09-.74-.166-.93zM47.53.863c-.195.087-.327.246-.397.477-.07.232-.106.61-.106 1.13v10.21c0 .514.035.89.106 1.124.07.234.204.395.402.482.197.087.514.14.95.16v.413c-.845-.042-2.06-.062-3.648-.062-1.654 0-2.873.02-3.657.06v-.41c.496-.02.856-.075 1.08-.162a.77.77 0 0 0 .462-.482c.084-.235.126-.61.126-1.125V2.14l-4.963 12.7h-.33L31.756 1.627v9.202c0 1.01.04 1.738.12 2.18.08.442.26.77.543.98.28.21.753.363 1.416.457v.412c-.55-.042-1.32-.062-2.31-.062-.724 0-1.293.02-1.708.06v-.41c.428-.095.745-.242.95-.443.203-.2.34-.508.41-.92.07-.41.107-1.026.107-1.843v-8.77c0-.516-.037-.89-.11-1.126-.075-.234-.21-.395-.408-.482-.197-.087-.514-.14-.95-.16V.29c.416.042.985.062 1.71.062 1.653 0 3.073-.02 4.258-.06l3.888 8.74L43.05.352h1.787c1.588 0 2.803-.02 3.647-.06V.7c-.442.02-.76.075-.954.162zm13.874 10.54c0 1.398.047 2.55.14 3.455-.93-.042-2.5-.062-4.71-.062-3.21 0-5.61.02-7.205.06v-.41c.44-.02.76-.075.96-.162.196-.087.33-.248.4-.482.07-.235.106-.61.106-1.125V2.47c0-.514-.037-.89-.11-1.124-.074-.234-.21-.395-.407-.482-.2-.087-.515-.14-.95-.16V.29c1.593.042 3.994.062 7.203.062 2.016 0 3.45-.02 4.3-.06a48.014 48.014 0 0 0-.14 3.455c0 .637.02 1.132.06 1.487h-.473c-.24-1.594-.698-2.737-1.37-3.43-.675-.694-1.48-1.04-2.418-1.04h-.27c-.376 0-.647.03-.815.09a.557.557 0 0 0-.346.357c-.063.178-.095.46-.095.85v5.264h.21c.49 0 .93-.137 1.322-.412a3.45 3.45 0 0 0 .97-1.035c.254-.415.425-.837.512-1.266h.47c-.052.805-.08 1.47-.08 2l.01.925c0 .59.045 1.564.132 2.923h-.472a3.778 3.778 0 0 0-.518-1.39 2.898 2.898 0 0 0-.99-.976 2.613 2.613 0 0 0-1.356-.356h-.21v5.354c0 .396.03.68.095.854.064.175.18.292.347.352.168.06.44.09.814.09h.684c.496 0 .993-.157 1.492-.472.5-.314.955-.835 1.367-1.562.41-.727.72-1.673.93-2.838h.47c-.04.49-.06 1.118-.06 1.89z" fill="#FFF" fill-rule="evenodd"/></svg>