<svg width="113" height="28" viewBox="0 0 113 28" xmlns="http://www.w3.org/2000/svg"><title>acme-header</title><path d="M25.946 25.808c.392.386.778.59 1.158.616v.753c-1.813-.073-4.098-.11-6.854-.11-2.867 0-4.974.037-6.32.11v-.753c.942-.037 1.62-.153 2.03-.35.41-.195.615-.538.615-1.028 0-.38-.154-.974-.46-1.783l-2.242-6.174h-7.59l-.642 1.69c-.807 2.107-1.212 3.742-1.212 4.906 0 1.03.285 1.733.855 2.113.57.38 1.418.587 2.545.624v.753c-1.874-.073-3.516-.11-4.925-.11-1.188 0-2.156.037-2.903.11v-.753c.613-.098 1.197-.484 1.755-1.158.557-.674 1.124-1.758 1.7-3.252l8.36-21.48c.54.048 1.2.072 1.985.072.784 0 1.44-.024 1.966-.073l9.114 23.484c.32.808.674 1.405 1.066 1.79zM10.198 6.928l-3.62 9.408h7.038l-3.418-9.41zm40.14 18.55c-.14-.35-.345-.524-.614-.524-.196 0-.454.104-.772.312-.747.527-1.436.96-2.067 1.296-.63.336-1.35.612-2.16.826-.808.215-1.72.322-2.737.322-2.842 0-5.33-.54-7.46-1.617-2.132-1.078-3.786-2.643-4.962-4.695-1.176-2.052-1.764-4.493-1.764-7.322 0-2.77.603-5.22 1.81-7.35a12.656 12.656 0 0 1 5.035-4.962C36.797.588 39.257 0 42.024 0c1.495 0 2.772.214 3.832.643 1.06.43 2.09 1.03 3.096 1.8.282.22.527.332.735.332.514 0 .833-.748.955-2.242h.864c-.098 1.776-.147 4.912-.147 9.408h-.865c-.122-1.334-.297-2.452-.523-3.352a8 8 0 0 0-1.038-2.426c-.466-.717-1.103-1.338-1.912-1.865-1.15-.747-2.315-1.12-3.49-1.12-1.802 0-3.226.633-4.273 1.9-1.05 1.27-1.777 2.852-2.188 4.75-.41 1.9-.615 3.933-.615 6.102 0 2.167.205 4.2.615 6.1.41 1.898 1.14 3.48 2.187 4.75 1.046 1.267 2.47 1.9 4.27 1.9 1.177 0 2.34-.373 3.492-1.12.81-.502 1.446-1.12 1.912-1.856.465-.735.81-1.595 1.038-2.582.226-.986.4-2.226.523-3.72h.864c0 4.667.048 7.925.146 9.775h-.864c-.06-.784-.162-1.35-.303-1.7zM86.935 1.58c-.356.16-.598.45-.726.873-.13.423-.193 1.112-.193 2.067v18.67c0 .943.064 1.63.193 2.058.128.428.373.722.735.882.36.16.94.257 1.736.294v.753c-1.544-.073-3.768-.11-6.67-.11-3.027 0-5.256.037-6.69.11v-.753c.907-.037 1.565-.135 1.976-.294.41-.16.692-.454.845-.882.154-.43.23-1.115.23-2.058V3.914L69.294 27.14h-.606L58.084 2.977V19.81c0 1.848.074 3.178.22 3.986.148.81.48 1.406.993 1.792.515.386 1.378.664 2.59.836v.753c-1.003-.073-2.412-.11-4.225-.11-1.323 0-2.364.037-3.124.11v-.753c.784-.172 1.363-.44 1.736-.81.374-.366.625-.927.754-1.68.128-.754.193-1.877.193-3.372V4.52c0-.943-.067-1.63-.2-2.058-.136-.428-.384-.722-.746-.882-.36-.16-.94-.257-1.736-.294V.533c.76.073 1.8.11 3.124.11 3.026 0 5.623-.037 7.79-.11l7.112 15.986L78.738.642h3.27c2.904 0 5.128-.037 6.67-.11v.753c-.807.037-1.39.135-1.744.294zm25.376 19.276c0 2.56.086 4.667.257 6.32-1.703-.072-4.575-.11-8.618-.11-5.87 0-10.26.038-13.176.11v-.752c.81-.037 1.394-.135 1.755-.294.36-.16.605-.454.734-.882.13-.43.193-1.115.193-2.058V4.52c0-.943-.067-1.63-.202-2.058-.135-.428-.383-.722-.744-.882-.36-.16-.94-.257-1.736-.294V.533c2.916.073 7.307.11 13.175.11 3.687 0 6.308-.037 7.864-.11-.172 2.352-.257 4.46-.257 6.32 0 1.165.036 2.07.11 2.72h-.864c-.44-2.915-1.277-5.007-2.508-6.275-1.23-1.268-2.704-1.9-4.42-1.9h-.495c-.686 0-1.183.054-1.49.164a1.02 1.02 0 0 0-.633.652c-.116.325-.174.842-.174 1.553v9.63h.386c.893 0 1.698-.253 2.415-.755a6.31 6.31 0 0 0 1.773-1.892c.466-.76.778-1.532.937-2.316h.864a56.82 56.82 0 0 0-.148 3.657l.018 1.69c0 1.08.08 2.862.24 5.35h-.864a6.91 6.91 0 0 0-.947-2.546 5.3 5.3 0 0 0-1.81-1.783c-.736-.434-1.563-.65-2.48-.65h-.387v9.793c0 .723.058 1.243.174 1.562.117.318.328.533.634.643.307.11.804.165 1.49.165h1.25c.906 0 1.815-.287 2.728-.863.913-.576 1.746-1.528 2.5-2.858.752-1.33 1.32-3.06 1.7-5.19h.862c-.073.894-.11 2.045-.11 3.454z" fill="#FFF" fill-rule="evenodd"/></svg>